<svg id="Warstwa_1" data-name="Warstwa 1" xmlns="http://www.w3.org/2000/svg" viewBox="0 0 295.36 70.69"><defs><style>.cls-1{fill:#3d3d3d;}</style></defs><title>Onwelo-Logo</title><path class="cls-1" d="M19.61,16.65a2,2,0,0,0-1.31,3.49L32.85,35.86A2,2,0,1,0,35.9,33.3l-0.08-.09h0L21,17.25a2,2,0,0,0-1.42-.6"/><path class="cls-1" d="M99.58,12a2,2,0,0,0-2,2v38.6L69,12.9A2,2,0,0,0,65.33,14V58.77a2,2,0,0,0,4,0V20.18L97.88,59.8a2,2,0,0,0,3.7-1V14a2,2,0,0,0-2-2"/><path class="cls-1" d="M172.62,11.93a2.08,2.08,0,0,0-1.73,1v0h0l-17.07,40.7L141.75,25.14a2,2,0,0,0-3.68,0L126,53.63,109.09,13.26l-0.17-.38a2,2,0,0,0-1.68-.88,2,2,0,0,0-2,2,2,2,0,0,0,.21.89l18.69,44.65a2,2,0,0,0,3.68,0L139.91,31,152,59.54v0a2,2,0,0,0,3.67,0l18.9-45.08h0a2.63,2.63,0,0,0,.06-0.49,2,2,0,0,0-2-2"/><path class="cls-1" d="M240.33,56.78H217.47V14a2,2,0,0,0-4,0V58.77a2,2,0,0,0,2,2h24.85a2,2,0,1,0,0-4"/><path class="cls-1" d="M205.88,16a2,2,0,1,0,0-4H181.07a2,2,0,0,0-2,2V58.77a2,2,0,0,0,.49,1.3,2,2,0,0,0,1.2.69h25.48a2.06,2.06,0,0,0,1.17-.71,2,2,0,0,0-1.52-3.28H183.07V38.19h19.49a2,2,0,1,0,0-4H183.07V16h22.81Z"/><path class="cls-1" d="M36,11a22.26,22.26,0,0,0-13.89,4.89l0.21,0.22,2.27,2.43,0.25,0.27A18.31,18.31,0,0,1,36,15c10.76,0,19.52,9.51,19.52,21.19S46.73,57.41,36,57.41,16.45,47.9,16.45,36.22a22.29,22.29,0,0,1,3.41-11.94L19.56,24l-2.32-2.49-0.18-.19a26.12,26.12,0,0,0-4.6,14.93C12.47,50.1,23,61.39,36,61.39s23.5-11.29,23.5-25.17S48.93,11,36,11"/><path class="cls-1" d="M280.77,16.41a2.21,2.21,0,0,0-1.29.41h0l-0.27.23h0L264.4,33h0l-0.07.08h0l-0.2.27h0A2.22,2.22,0,0,0,267.71,36l14.56-15.73,0-.05,0.16-.18a2.22,2.22,0,0,0-1.71-3.64"/><path class="cls-1" d="M264.41,11a22.26,22.26,0,0,1,13.89,4.89l-0.21.22-2.27,2.43-0.25.27A18.31,18.31,0,0,0,264.41,15c-10.76,0-19.52,9.51-19.52,21.19s8.76,21.19,19.52,21.19,19.52-9.51,19.52-21.19a22.29,22.29,0,0,0-3.41-11.94l0.3-.31,2.32-2.49,0.18-.19a26.12,26.12,0,0,1,4.6,14.93c0,13.88-10.54,25.17-23.5,25.17S240.9,50.1,240.9,36.22,251.45,11,264.41,11"/></svg>